#!OML:ASF G:\JayActor3\Patient Classification 1\Patient 1\Session 2\male.ASF
:FULLY-SPECIFIED
:DEGREES
3032
root -27.0182 17.0931 -4.85326 3075.45 82.1648 196.331
lowerback 1.41552 3.46261 4.44416
upperback -1.74363 4.77847 0.916423
thorax -2.30441 2.32358 -1.68775
lowerneck -4.78558 12.4225 8.35917
upperneck 5.08047 16.1516 -2.2171
head 3.42571 8.11902 -1.29628
rclavicle 4.71741e-014 2.78299e-015
rhumerus -33.3221 2.71631 -86.4791
rradius 27.8276
rwrist -4.95439
rhand -19.6755 0.756588
rfingers 7.12502
rthumb 6.65308 -29.1189
lclavicle 4.71741e-014 2.78299e-015
lhumerus -45.7347 2.60899 72.1711
lradius 18.4665
lwrist 5.00925
lhand -18.5887 18.1546
lfingers 7.12502
lthumb 7.70216 47.9943
rfemur 3.20449 -4.70367 27.431
rtibia 23.4234
rfoot -18.1182 -3.49575
rtoes 15.5953
lfemur -31.0334 0.129649 -17.3515
ltibia 63.211
lfoot -2.04507 5.62728
ltoes -17.093
3033
root -26.8698 17.1025 -4.8618 3077.93 82.1111 198.685
lowerback 1.25026 3.62367 4.86502
upperback -1.78908 4.99568 0.86612
thorax -2.20691 2.42639 -1.96494
lowerneck -4.83449 12.4429 8.37145
upperneck 5.13162 16.1751 -2.21483
head 3.45514 8.13109 -1.29039
rclavicle 3.32964e-015 8.94531e-015
rhumerus -32.9002 4.38499 -86.9175
rradius 29.3915
rwrist -5.92528
rhand -19.3615 0.644821
rfingers 7.12502
rthumb 6.95619 -29.2209
lclavicle 3.32964e-015 8.94531e-015
lhumerus -46.1931 2.10391 71.7092
lradius 18.7916
lwrist 5.57758
lhand -18.4682 18.0784
lfingers 7.12502
lthumb 7.81849 47.9138
rfemur 3.91339 -5.26728 27.5827
rtibia 22.7505
rfoot -17.4861 -3.03756
rtoes 14.8422
lfemur -31.4566 0.10857 -17.3797
ltibia 60.72
lfoot -2.77222 6.1084
ltoes -16.7471
3034
root -26.7217 17.1068 -4.86949 3080.59 82.0322 201.212
lowerback 1.08908 3.76613 5.29061
upperback -1.81828 5.18707 0.837942
thorax -2.09531 2.51744 -2.21956
lowerneck -4.90025 12.4805 8.34793
upperneck 5.17788 16.2204 -2.18498
head 3.48066 8.15393 -1.26784
rclavicle 7.06431e-014 1.23246e-014
rhumerus -32.431 5.96093 -87.2246
rradius 30.9167
rwrist -6.76681
rhand -19.0686 0.547028
rfingers 7.12502
rthumb 7.23891 -29.3092
lclavicle 7.06431e-014 1.23246e-014
lhumerus -46.6405 1.62759 71.2922
lradius 19.0967
lwrist 6.08241
lhand -18.4602 18.0161
lfingers 7.12502
lthumb 7.82617 47.8513
rfemur 4.64926 -5.70828 27.809
rtibia 22.0429
rfoot -16.9257 -2.69671
rtoes 14.1961
lfemur -31.7968 0.158583 -17.3616
ltibia 58.0708
lfoot -3.45797 6.28041
ltoes -16.4672
3035
root -26.5737 17.1055 -4.87645 3083.27 81.9373 203.765
lowerback 0.933801 3.89151 5.70234
upperback -1.82927 5.35386 0.825123
thorax -1.97017 2.59766 -2.44866
lowerneck -4.92426 12.5244 8.33827
upperneck 5.18476 16.2764 -2.15742
head 3.4867 8.18221 -1.25158
rclavicle 5.82563e-014 1.60022e-014
rhumerus -31.9079 7.44938 -87.4128
rradius 32.396
rwrist -7.50882
rhand -18.813 0.480401
rfingers 7.12502
rthumb 7.48561 -29.3672
lclavicle 5.82563e-014 1.60022e-014
lhumerus -47.0784 1.17194 70.9262
lradius 19.3822
lwrist 6.53959
lhand -18.5553 17.9771
lfingers 7.12502
lthumb 7.73441 47.8157
rfemur 5.39518 -6.06138 28.0814
rtibia 21.3247
rfoot -16.4224 -2.47203
rtoes 13.4289
lfemur -32.048 0.269569 -17.3224
ltibia 55.2757
lfoot -4.08632 6.11073
ltoes -16.2024
3036
root -26.4259 17.0986 -4.88265 3085.78 81.8368 206.165
lowerback 0.791617 4.00399 6.07733
upperback -1.82506 5.50143 0.815098
thorax -1.83969 2.6697 -2.6536
lowerneck -4.89953 12.5714 8.34647
upperneck 5.14662 16.3391 -2.13257
head 3.47022 8.21406 -1.24341
rclavicle 9.21491e-014 1.49089e-014
rhumerus -31.3335 8.84412 -87.4976
rradius 33.8171
rwrist -8.16469
rhand -18.5649 0.444595
rfingers 7.12502
rthumb 7.72509 -29.3943
lclavicle 9.21491e-014 1.49089e-014
lhumerus -47.4972 0.742245 70.5914
lradius 19.626
lwrist 6.92496
lhand -18.7276 17.9739
lfingers 7.12502
lthumb 7.56809 47.8185
rfemur 6.14463 -6.33082 28.3698
rtibia 20.627
rfoot -15.9916 -2.33048
rtoes 12.6375
lfemur -32.2051 0.417407 -17.2918
ltibia 52.3464
lfoot -4.62813 5.58352
ltoes -16.1491
